<svg width="19.800003" height="19.799988" viewBox="0 0 19.8 19.8" fill="none" xmlns="http://www.w3.org/2000/svg" xmlns:xlink="http://www.w3.org/1999/xlink">
	<desc>
			Created with Pixso.
	</desc>
	<defs/>
	<path id="icon" d="M0 9.89999C0 15.3676 4.43238 19.8 9.9 19.8C15.3676 19.8 19.8 15.3676 19.8 9.89999C19.8 4.43237 15.3676 0 9.9 0C4.43238 0 0 4.43237 0 9.89999ZM18 9.89999C18 14.3735 14.3735 18 9.9 18C5.42649 18 1.8 14.3735 1.8 9.89999C1.8 5.42648 5.42649 1.79999 9.9 1.79999C14.3735 1.79999 18 5.42648 18 9.89999ZM12.8636 6.5636L8.10001 11.3272L6.0364 9.26361L4.7636 10.5364L8.10001 13.8728L14.1364 7.8364L12.8636 6.5636Z" clip-rule="evenodd" fill="#27AE60" fill-opacity="1.000000" fill-rule="evenodd"/>
</svg>
