<svg width="18.064514" height="18.000000" viewBox="0 0 18.0645 18" fill="none" xmlns="http://www.w3.org/2000/svg" xmlns:xlink="http://www.w3.org/1999/xlink">
	<desc>
			Created with Pixso.
	</desc>
	<defs/>
	<path id="icon" d="M3.20377 1.85443C3.35019 1.82004 3.50427 1.80194 3.66412 1.80228L16.2366 2.70032C17.3632 2.72021 18.4654 3.65442 17.9213 4.86816C17.8153 5.10449 17.3369 6.06696 16.5762 7.58142C16.2656 8.19968 15.9469 8.83252 15.6282 9.46429C15.4476 9.82217 15.4476 9.82217 15.3201 10.0746C15.2618 10.1901 15.239 10.2351 15.2253 10.2623C14.9667 10.9275 14.4204 11.4413 13.738 11.6578L13.6052 11.7L4.53421 11.7L4.52133 11.6993L2.7446 11.6989C2.23318 11.7243 1.82428 12.1332 1.79999 12.6L1.79837 13.4461C1.82928 13.9612 2.241 14.3724 2.70001 14.4L2.85364 14.4C3.22427 13.3513 4.2244 12.6 5.39999 12.6C6.57559 12.6 7.57571 13.3513 7.94635 14.4L10.0536 14.4C10.4243 13.3513 11.4244 12.6 12.6 12.6C14.0912 12.6 15.3 13.8088 15.3 15.3C15.3 16.7912 14.0912 18 12.6 18C11.4244 18 10.4243 17.2487 10.0536 16.2L7.94635 16.2C7.57571 17.2487 6.57559 18 5.39999 18C4.22397 18 3.22357 17.2481 2.85324 16.1989L2.64893 16.1985C1.22647 16.1177 0.0871277 14.9796 0 13.5L0.00109863 12.5554C0.0721741 11.123 1.21533 9.97702 2.69092 9.90045L1.80905 3.72726L1.79999 3.60001C1.79999 3.01776 1.50378 2.32657 1.1636 1.98639C1.07541 1.89819 0.682617 1.79999 0 1.79999L0 0C1.1174 0 1.92459 0.201813 2.4364 0.713593C2.73795 1.01514 3.00305 1.41205 3.20377 1.85443ZM13.2924 9.89996L4.60153 9.89996C4.54376 9.88391 4.49973 9.83496 4.49109 9.77399L3.60919 3.60065L16.104 4.49539C15.8854 4.94125 15.4879 5.73761 14.9677 6.77344L14.9546 6.79941C14.6576 7.39066 14.3394 8.02261 14.0211 8.65353C13.8407 9.01099 13.8407 9.01099 13.7134 9.26309C13.6179 9.45206 13.6179 9.45206 13.5968 9.49393L13.5529 9.59598C13.5059 9.72696 13.4125 9.83459 13.2924 9.89996ZM6.29999 15.2999C6.29999 15.797 5.89706 16.1999 5.39999 16.1999C4.90295 16.1999 4.5 15.797 4.5 15.2999C4.5 14.8029 4.90295 14.3999 5.39999 14.3999C5.89706 14.3999 6.29999 14.8029 6.29999 15.2999ZM12.6 16.1999C13.097 16.1999 13.5 15.797 13.5 15.2999C13.5 14.8029 13.097 14.3999 12.6 14.3999C12.1029 14.3999 11.7 14.8029 11.7 15.2999C11.7 15.797 12.1029 16.1999 12.6 16.1999Z" clip-rule="evenodd" fill="#000000" fill-opacity="1.000000" fill-rule="evenodd"/>
</svg>
