<svg width="19.799988" height="18.113525" viewBox="0 0 19.8 18.1135" fill="none" xmlns="http://www.w3.org/2000/svg" xmlns:xlink="http://www.w3.org/1999/xlink">
	<desc>
			Created with Pixso.
	</desc>
	<defs/>
	<path id="icon" d="M10.8924 0.626465C11.8552 0.155212 12.695 0 13.9979 0C17.3322 0.0138245 19.8 2.82587 19.8 6.4079C19.8 9.14197 18.2755 11.7831 15.436 14.3369C13.9456 15.6774 12.0426 17.004 10.6797 17.7097L9.89999 18.1135L9.12024 17.7097C7.75739 17.004 5.8544 15.6774 4.36395 14.3369C1.52444 11.7831 0 9.14197 0 6.4079C0 2.78754 2.44479 0 5.80908 0C7.06525 0 7.94818 0.169891 8.92963 0.655334C9.27133 0.824341 9.59238 1.02478 9.89096 1.2562C10.2015 1.01105 10.5359 0.800934 10.8924 0.626465ZM18 6.40793C18 8.54996 16.7276 10.7544 14.2324 12.9986C12.872 14.2221 11.1231 15.4449 9.90005 16.0864C8.67697 15.4449 6.92807 14.2221 5.56769 12.9986C3.07248 10.7544 1.80005 8.54996 1.80005 6.40793C1.80005 3.73297 3.49533 1.80005 5.80914 1.80005C6.80789 1.80005 7.42337 1.91846 8.13165 2.2688C8.55005 2.47574 8.91983 2.74896 9.23993 3.09042L9.90216 3.79688L10.5583 3.08484C10.8857 2.72971 11.2609 2.45023 11.6838 2.24323C12.3713 1.90668 12.9483 1.80005 13.9942 1.80005C16.2794 1.80951 18 3.77011 18 6.40793Z" clip-rule="evenodd" fill="#000000" fill-opacity="1.000000" fill-rule="evenodd"/>
</svg>
